<svg version="1.0" xmlns="http://www.w3.org/2000/svg"
 width="225.000000pt" height="225.000000pt" viewBox="0 0 225.000000 225.000000"
 preserveAspectRatio="xMidYMid meet">
<metadata>
Created by potrace 1.10, written by Peter Selinger 2001-2011
</metadata>
<g transform="translate(0.000000,225.000000) scale(0.100000,-0.100000)"
fill="#FFFFFF" stroke="none">
<path d="M40 1125 l0 -1085 1085 0 1085 0 0 1085 0 1085 -1085 0 -1085 0 0
-1085z m2127 1042 c10 -11 11 -2055 1 -2080 -7 -17 -58 -17 -1042 -15 -569 2
-1038 7 -1043 11 -8 8 -13 1817 -5 1999 3 86 4 87 30 90 62 7 2051 2 2059 -5z"/>
<path d="M1437 1907 c2 -4 -7 -5 -22 -1 -19 5 -30 2 -39 -12 -9 -12 -28 -18
-59 -19 -26 -2 -58 -10 -73 -19 -14 -10 -31 -15 -38 -13 -7 3 -19 1 -27 -5
-11 -7 -9 -8 6 -3 14 4 17 3 10 -4 -6 -6 -21 -12 -34 -13 -14 -2 -35 -13 -49
-25 -14 -13 -34 -23 -44 -23 -11 0 -17 -4 -14 -9 4 -5 -3 -7 -14 -4 -11 3 -20
11 -20 18 0 22 -38 100 -58 116 -16 14 -42 16 -158 14 -76 -2 -149 -6 -161
-10 -14 -5 -28 -24 -40 -57 -10 -28 -24 -53 -30 -55 -7 -3 -13 -9 -13 -15 0
-5 4 -7 9 -4 9 6 -10 -64 -43 -154 -8 -25 -16 -56 -16 -70 0 -20 -2 -22 -11
-10 -8 12 -9 7 -6 -17 2 -18 1 -31 -1 -28 -8 7 -64 -157 -63 -185 1 -20 -1
-22 -10 -10 -8 11 -9 7 -5 -18 3 -18 2 -31 -2 -28 -4 2 -18 -31 -31 -75 -13
-43 -28 -79 -32 -79 -5 0 -6 -14 -2 -32 5 -23 3 -29 -6 -24 -8 5 -11 3 -10 -5
1 -8 -3 -27 -10 -44 -35 -84 -19 -117 43 -91 20 8 36 18 36 21 0 3 -6 3 -12
-1 -9 -5 -9 -2 1 9 7 9 19 17 26 17 7 0 16 7 19 16 4 11 14 15 30 12 19 -4 24
-1 21 14 -2 10 0 16 6 13 12 -8 40 20 31 30 -4 5 0 6 8 4 16 -5 62 36 52 46
-4 3 2 3 13 -1 14 -6 17 -4 13 7 -6 16 16 41 28 31 4 -4 4 -1 0 6 -4 7 6 41
24 78 17 35 28 69 25 74 -3 5 1 22 9 38 8 16 13 32 9 35 -5 6 10 44 39 101 7
13 7 16 -1 12 -11 -7 7 44 20 54 3 3 9 12 12 20 4 10 6 8 6 -7 1 -12 5 -24 10
-27 5 -3 7 -15 4 -26 -4 -14 -1 -20 7 -18 7 2 14 -9 16 -26 1 -16 7 -32 12
-35 6 -3 12 -17 13 -30 2 -14 9 -26 16 -28 8 -3 6 17 -7 64 -42 145 -78 247
-83 233 -3 -8 -41 -126 -84 -261 l-79 -246 -143 -117 c-78 -65 -141 -111 -139
-103 1 8 75 231 163 496 l159 481 156 0 155 0 59 -177 c32 -98 60 -182 62
-188 2 -5 -27 -34 -64 -62 -82 -65 -132 -109 -132 -117 0 -14 22 -4 57 27 20
17 34 26 29 20 -5 -9 -2 -11 9 -7 9 4 13 9 11 12 -10 10 15 31 30 25 10 -3 12
0 8 10 -3 8 0 18 6 22 16 10 70 13 64 3 -3 -4 4 -16 16 -28 11 -11 17 -20 13
-20 -5 0 -24 -13 -43 -30 -19 -16 -36 -27 -38 -25 -2 2 -19 -12 -38 -31 -35
-34 -51 -44 -38 -22 4 7 3 8 -5 4 -6 -4 -9 -11 -6 -16 3 -4 -2 -10 -9 -13 -18
-7 -42 -43 -51 -77 -5 -20 -4 -22 5 -10 9 12 10 9 5 -13 -3 -16 -2 -26 3 -23
5 3 9 -8 10 -24 0 -17 4 -39 7 -50 6 -19 2 -20 -115 -20 -128 0 -153 -8 -217
-69 -12 -12 -27 -21 -33 -21 -5 0 -10 -4 -10 -8 0 -5 -18 -18 -40 -31 -22 -12
-43 -27 -47 -34 -4 -7 2 -5 13 3 18 14 18 14 5 -3 -8 -10 -20 -16 -28 -13 -8
3 -11 1 -8 -4 3 -6 1 -10 -6 -10 -6 0 -27 -14 -46 -31 -20 -17 -42 -28 -50
-25 -8 3 -12 2 -9 -2 10 -17 -69 -86 -88 -75 -6 4 -4 -2 4 -13 8 -10 11 -16 6
-12 -9 8 -29 -16 -60 -71 -10 -19 -14 -31 -7 -27 17 11 13 2 -10 -25 -11 -13
-16 -25 -10 -27 6 -2 11 -8 11 -13 0 -6 -4 -8 -9 -5 -21 13 -3 -41 19 -57 36
-25 186 -23 219 4 13 11 19 23 15 30 -4 7 -3 9 3 6 6 -4 14 4 17 18 4 14 11
25 16 25 6 0 10 5 10 11 0 5 -5 7 -12 3 -6 -4 -9 -3 -7 2 26 50 69 168 69 186
0 10 8 21 18 26 9 5 118 10 242 11 246 3 233 6 268 -58 10 -17 10 -21 1 -15
-9 5 -10 2 -5 -12 5 -10 11 -27 13 -36 3 -10 9 -18 12 -18 4 0 8 -6 9 -12 0
-7 3 -22 6 -33 2 -11 5 -26 5 -33 1 -7 6 -10 13 -6 6 4 8 3 4 -4 -7 -12 11
-57 34 -84 13 -16 37 -18 235 -17 164 0 224 3 237 13 10 7 14 17 10 22 -4 4 0
3 8 -3 17 -13 79 -10 108 6 11 6 23 7 27 3 5 -4 5 -1 1 6 -6 10 -1 11 21 7 15
-3 22 -2 15 1 -7 3 7 15 35 29 25 13 51 21 57 18 6 -4 5 1 -3 10 -12 15 -12
17 2 11 10 -3 28 8 52 33 20 21 34 32 29 24 -4 -8 -2 -12 5 -10 7 3 12 8 12
12 -1 4 7 15 17 25 9 10 23 28 31 40 8 11 19 18 24 15 6 -3 7 -1 3 5 -3 6 0
16 7 24 7 7 23 28 36 46 18 26 26 31 33 20 7 -9 8 -7 3 8 -3 12 1 34 10 50 20
39 19 70 -2 79 -21 7 -694 7 -738 -1 -16 -3 -33 -8 -38 -11 -6 -3 -7 -1 -4 4
4 6 0 16 -8 23 -8 7 -15 21 -15 32 0 12 -4 17 -12 12 -8 -5 -9 -2 -5 9 3 10 3
17 -1 17 -4 0 -16 18 -26 40 -10 22 -23 37 -27 34 -5 -3 -14 6 -21 20 -8 18
-15 23 -23 16 -15 -13 -25 -3 -25 27 0 13 -5 23 -11 23 -5 0 -7 4 -4 10 3 5 3
26 -1 46 -5 25 -9 32 -15 22 -7 -10 -9 -9 -9 5 0 10 -7 31 -15 47 -11 22 -12
30 -2 33 9 4 9 6 0 6 -6 1 -15 -3 -18 -9 -4 -7 246 -779 279 -860 5 -13 -13
-15 -129 -15 l-135 0 -55 165 -55 165 -265 0 -265 0 -55 -165 -55 -165 -105 0
c-64 0 -105 4 -105 10 0 6 13 44 28 86 30 84 11 66 286 289 65 52 132 107 149
123 l32 27 143 -2 c78 -2 142 0 142 3 0 3 -14 45 -30 94 -27 79 -28 90 -14 98
13 7 77 60 94 77 3 3 21 17 42 32 20 15 43 35 52 44 14 13 49 16 241 16 124 0
225 4 225 9 0 24 32 4 48 -28 9 -21 20 -39 24 -41 4 -2 4 -10 1 -18 -4 -10 2
-17 15 -21 13 -3 19 -10 15 -19 -3 -8 0 -14 6 -14 6 0 11 -10 12 -22 0 -13 3
-17 6 -10 4 10 9 9 19 -5 13 -17 16 -16 49 21 41 46 87 130 77 142 -4 5 2 2
12 -6 15 -11 18 -12 12 -2 -5 9 0 25 14 44 13 17 16 28 9 24 -10 -5 -10 -4 1
6 8 7 21 23 28 36 6 12 18 32 25 44 6 12 18 28 25 36 6 7 13 18 13 23 3 18 5
24 17 46 9 17 9 28 0 47 -6 14 -15 26 -20 26 -5 0 -6 4 -3 10 4 6 -1 7 -11 3
-13 -5 -16 -3 -11 10 4 12 2 14 -10 10 -10 -4 -14 -2 -10 4 4 6 -12 18 -34 28
-22 10 -35 21 -29 25 6 4 -9 13 -32 20 -24 8 -45 17 -48 20 -10 11 -111 41
-119 35 -5 -3 -11 0 -13 7 -3 7 -48 16 -120 23 -64 5 -114 7 -111 2z m188 -42
c96 -17 256 -94 325 -156 l45 -41 -34 -61 c-19 -34 -71 -125 -116 -202 -45
-77 -85 -150 -89 -162 -8 -25 -26 -31 -26 -10 0 7 -30 64 -66 127 -221 386
-269 467 -287 487 l-19 22 38 4 c82 8 152 6 229 -8z m-254 -77 c23 -40 79
-138 125 -217 46 -79 84 -147 84 -150 0 -3 -102 -5 -227 -3 l-228 3 -46 139
-46 139 21 20 c53 49 222 137 268 140 4 1 26 -32 49 -71z m-71 -733 c35 -66
255 -451 289 -506 11 -19 21 -37 21 -41 0 -3 -38 -8 -84 -10 l-85 -3 -106 311
c-62 183 -103 318 -99 328 6 16 7 16 19 -1 7 -10 27 -45 45 -78z m819 -167
c-61 -121 -159 -230 -263 -292 -57 -34 -194 -92 -200 -85 -2 2 -39 67 -83 144
-44 77 -100 175 -126 217 -25 42 -44 78 -42 80 2 2 170 2 374 0 l371 -2 -31
-62z"/>
<path d="M532 358 c9 -7 19 -24 23 -36 6 -21 4 -23 -14 -17 -12 3 -21 2 -21
-3 0 -19 39 -21 45 -2 8 26 -12 70 -32 70 -15 0 -15 -1 -1 -12z"/>
<path d="M675 351 c5 -17 3 -20 -12 -15 -17 5 -17 5 0 -6 9 -6 17 -19 17 -28
-1 -16 -2 -16 -14 1 -12 15 -14 16 -20 2 -3 -9 0 -15 9 -15 8 0 18 -1 21 -2 4
-2 13 7 22 20 13 20 13 22 -1 16 -12 -4 -14 -1 -10 14 2 11 -1 23 -7 27 -9 5
-10 1 -5 -14z"/>
<path d="M882 358 c-7 -7 -12 -21 -11 -32 0 -12 3 -15 6 -8 2 6 8 10 13 7 4
-3 6 4 3 15 -8 32 11 23 24 -10 11 -28 10 -30 -7 -25 -10 3 -22 1 -26 -6 -4
-7 -2 -10 7 -7 8 3 22 1 33 -4 14 -8 17 -7 11 3 -6 9 -3 10 10 5 17 -6 18 -5
4 11 -17 20 -18 31 -4 53 7 13 6 13 -7 2 -11 -9 -18 -10 -23 -2 -8 13 -18 13
-33 -2z"/>
<path d="M1710 359 c0 -5 -5 -7 -12 -3 -8 5 -9 2 -5 -9 3 -10 3 -17 -1 -17 -5
0 -8 -10 -8 -22 0 -20 5 -23 36 -23 32 0 36 3 35 28 0 15 -3 27 -7 27 -5 0 -8
7 -8 15 0 8 -7 15 -15 15 -8 0 -15 -5 -15 -11z m28 -27 c9 -27 8 -29 -18 -29
-28 0 -29 1 -14 29 8 15 16 28 18 28 2 0 8 -13 14 -28z"/>
<path d="M1253 333 c26 -7 21 -33 -7 -33 -29 0 -44 -19 -25 -31 10 -6 11 -9 2
-9 -7 0 -13 -4 -13 -10 0 -16 17 -11 24 7 4 9 1 21 -6 26 -9 6 -7 7 6 3 23 -8
46 10 46 35 0 13 -7 19 -22 18 -17 -1 -19 -2 -5 -6z"/>
<path d="M1010 313 c0 -12 -7 -28 -15 -36 -12 -13 -11 -15 10 -13 19 1 21 4
12 15 -10 11 -8 13 11 7 15 -5 22 -3 22 5 0 7 -3 9 -7 5 -4 -3 -13 4 -20 16
l-12 23 -1 -22z"/>
</g>
</svg>
